<svg width="82" height="24" viewBox="0 0 82 23.9907" fill="none" xmlns="http://www.w3.org/2000/svg" style="display: block;">
<g id="Isolation_Mode" clip-path="url(#clip0_0_4)">
<path id="Vector" d="M17.4113 23.7424H20.3366C26.7002 23.7424 31.8567 18.5839 31.8567 12.2223C31.8567 5.86078 26.6982 0.700281 20.3366 0.700281H8.38301L17.4134 23.7424H17.4113Z" fill="var(--fill-0, white)"/>
<path id="Vector_2" d="M0 0.700281L9.03036 23.7424H13.2198L4.1915 0.700281H0Z" fill="var(--fill-0, white)"/>
<path id="Vector_3" d="M34.3056 0.704352H38.664V23.7424H34.3056V0.704352Z" fill="var(--fill-0, white)"/>
<path id="Vector_4" d="M41.4713 7.03741H45.8297V23.7403H41.4713V7.03741Z" fill="var(--fill-0, white)"/>
<path id="Vector_5" d="M64.0044 14.1786V23.7424H59.646V14.9257C59.646 12.2244 58.5284 10.9826 56.6006 10.9826C54.5058 10.9826 52.9954 12.4117 52.9954 15.4835V23.7424H48.6369V7.03741H52.7999V8.99372C53.9745 7.56466 55.7334 6.78906 57.7731 6.78906C61.3214 6.78906 64.0044 9.08736 64.0044 14.1786Z" fill="var(--fill-0, white)"/>
<path id="Vector_6" d="M81.9165 16.7558H70.5431C70.9624 18.8363 72.5544 20.1086 74.8466 20.1086C76.4385 20.1086 77.5846 19.5814 78.6187 18.4943L80.9374 21.2893C79.5409 23.0584 77.4441 23.9907 74.7346 23.9907C69.5375 23.9907 66.1562 20.359 66.1562 15.3899C66.1562 10.4207 69.5924 6.78906 74.1748 6.78906C78.7571 6.78906 81.998 10.0808 81.998 15.451C81.998 15.8235 81.943 16.3507 81.9145 16.7558H81.9165ZM70.4881 13.9303H77.892C77.5846 11.8193 76.1596 10.4533 74.2033 10.4533C72.247 10.4533 70.7935 11.7887 70.4861 13.9303H70.4881Z" fill="var(--fill-0, white)"/>
<path id="Vector_7" d="M40.9399 2.70952C40.9399 1.18274 42.029 0 43.6495 0C45.2699 0 46.359 1.12167 46.359 2.61791C46.359 4.23833 45.2699 5.42107 43.6495 5.42107C42.029 5.42107 40.9399 4.23629 40.9399 2.71155V2.70952Z" fill="var(--fill-0, white)"/>
</g>
<defs>
<clipPath id="clip0_0_4">
<rect width="82" height="23.9907" fill="white"/>
</clipPath>
</defs>
</svg>
